<svg id="Layer_1" data-name="Layer 1" xmlns="http://www.w3.org/2000/svg" xmlns:xlink="http://www.w3.org/1999/xlink" width="448.67" height="485.27" viewBox="0 0 448.67 485.27"><defs><clipPath id="clip-path" transform="translate(-39.04 -5.95)"><polygon points="205.92 208.61 256.18 167.99 256 248.85 205.92 208.61" fill="none"/></clipPath><clipPath id="clip-path-2" transform="translate(-39.04 -5.95)"><polygon points="306.03 208.4 256.18 167.99 256 248.85 306.03 208.4" fill="none"/></clipPath><clipPath id="clip-path-3" transform="translate(-39.04 -5.95)"><polygon points="323.17 333.75 306.03 208.4 256 248.85 323.17 333.75" fill="none"/></clipPath><clipPath id="clip-path-4" transform="translate(-39.04 -5.95)"><polygon points="256 406.26 323.17 333.75 256 248.85 256 406.26" fill="none"/></clipPath><clipPath id="clip-path-5" transform="translate(-39.04 -5.95)"><polygon points="188.83 333.75 256 248.85 256 406.26 188.83 333.75" fill="none"/></clipPath><clipPath id="clip-path-6" transform="translate(-39.04 -5.95)"><polygon points="188.83 333.75 205.92 208.61 256 248.85 188.83 333.75" fill="none"/></clipPath></defs><g id="Layer_2" data-name="Layer 2"><g clip-path="url(#clip-path)"><rect x="163.68" y="157.45" width="60" height="90" fill="#6bcce0"/></g><g clip-path="url(#clip-path-2)"><rect x="211.98" y="157.66" width="60" height="90" fill="#89d5ec"/></g><g clip-path="url(#clip-path-3)"><rect x="215.55" y="199.19" width="70" height="130" fill="#88d2da"/></g><g clip-path="url(#clip-path-4)"><rect x="212.55" y="241.61" width="80" height="160" fill="#73a2d6"/></g><g clip-path="url(#clip-path-5)"><rect x="145.51" y="241.61" width="80" height="160" fill="#7c80be"/></g><g clip-path="url(#clip-path-6)"><rect x="148.38" y="200.23" width="70" height="130" fill="#40bae7"/></g></g><polygon points="297.06 200.76 279.43 213.09 296.86 225.83 314.3 213.09 297.06 200.76" fill="#54ba65"/><polygon points="296.86 225.83 279.43 213.09 279.43 228.5 296.86 241.02 314.3 228.5 314.3 213.09 296.86 225.83" fill="#a37e62"/><polygon points="59.44 399.06 35.91 415.52 59.18 432.52 82.45 415.52 59.44 399.06" fill="#54ba65"/><polygon points="59.18 432.52 35.91 415.52 35.91 436.09 59.18 452.79 82.45 436.09 82.45 415.52 59.18 432.52" fill="#a37e62"/><polygon points="123.44 207.23 103.42 221.24 123.22 235.71 143.02 221.24 123.44 207.23" fill="#54ba65"/><polygon points="123.22 235.71 103.42 221.24 103.42 238.74 123.22 252.94 143.02 238.74 143.02 221.24 123.22 235.71" fill="#a37e62"/><polygon points="251.53 382.94 214.51 408.84 251.12 435.6 287.74 408.84 251.53 382.94" fill="#54ba65"/><polygon points="251.12 435.6 214.51 408.84 214.51 441.21 251.12 467.49 287.74 441.21 287.74 408.84 251.12 435.6" fill="#a37e62"/><polygon points="143.36 361.27 112.29 383 143.02 405.47 173.75 383 143.36 361.27" fill="#54ba65"/><polygon points="143.02 405.47 112.29 383 112.29 410.17 143.02 432.23 173.75 410.17 173.75 383 143.02 405.47" fill="#a37e62"/><polygon points="395.82 375.54 366.02 396.39 395.49 417.93 424.96 396.39 395.82 375.54" fill="#54ba65"/><polygon points="395.49 417.93 366.02 396.39 366.02 422.44 395.49 443.59 424.96 422.44 424.96 396.39 395.49 417.93" fill="#a37e62"/><polygon points="27.47 190.95 0 210.16 27.16 230.01 54.33 210.16 27.47 190.95" fill="#54ba65"/><polygon points="27.16 230.01 0 210.16 0 234.17 27.16 253.67 54.33 234.17 54.33 210.16 27.16 230.01" fill="#a37e62"/><polygon points="201.28 79.71 169.89 101.67 200.93 124.35 231.97 101.67 201.28 79.71" fill="#54ba65"/><polygon points="200.93 124.35 169.89 101.67 169.89 129.1 200.93 151.38 231.97 129.1 231.97 101.67 200.93 124.35" fill="#a37e62"/><polygon points="413 149.96 382.75 171.12 412.67 192.98 442.58 171.12 413 149.96" fill="#54ba65"/><polygon points="412.67 192.98 382.75 171.12 382.75 197.56 412.67 219.03 442.58 197.56 442.58 171.12 412.67 192.98" fill="#a37e62"/><path d="M399.38,326.52l-63.44-46.37v56.08l63.44,45.53,63.44-45.53V280.15Z" transform="translate(-39.04 -5.95)" fill="#8d5d5c"/><polygon points="337.09 277.14 315.26 293.27 315.26 464.95 341.73 485.27 341.9 307.09 360.03 293.25 337.09 277.14" fill="#f26a2f"/><polygon points="337.09 277.14 337.09 271.89 315.26 287.62 315.26 293.27 337.09 277.14" fill="#664747"/><polygon points="337.09 277.14 360.03 293.25 363.56 290.6 337.09 271.89 337.09 277.14" fill="#664747"/><polygon points="423.78 274.2 361.06 229.33 296.91 274.2 315.26 287.62 337.09 271.89 363.56 290.6 341.9 307.09 360.35 320.57 423.78 274.2" fill="#9c3135"/><path d="M398.25,231.77c-10.7,10.74,7.66,10.25-6.57,15.49" transform="translate(-39.04 -5.95)" fill="none" stroke="#ef3f23" stroke-miterlimit="10" stroke-width="4"/><path d="M387.32,242.8c-3.55,3.1-9.38,16.1-4.71,13.46s4.25,6.68,3.07,6.27" transform="translate(-39.04 -5.95)" fill="none" stroke="#ef3f23" stroke-miterlimit="10" stroke-width="4"/><path d="M363.57,254c.47,4.32-5.86,10.31.57,13.89,2.54,1.41-4.3,4.52-5.52,4.81" transform="translate(-39.04 -5.95)" fill="none" stroke="#ef3f23" stroke-miterlimit="10" stroke-width="4"/><path d="M427.48,270.85c8.8,4.09,8.85,14.21,2.94,18.61" transform="translate(-39.04 -5.95)" fill="none" stroke="#ef3f23" stroke-miterlimit="10" stroke-width="4"/><path d="M454.94,262.54c3.19,9.17-4,16.25-11.3,15.07" transform="translate(-39.04 -5.95)" fill="none" stroke="#ef3f23" stroke-miterlimit="10" stroke-width="4"/><path d="M411.14,270.14c3.18,9.16-4.05,16.25-11.31,15.07" transform="translate(-39.04 -5.95)" fill="none" stroke="#ef3f23" stroke-miterlimit="10" stroke-width="4"/><path d="M406.08,245.53c9.13,4.89.9,16.78-6.2,17.8" transform="translate(-39.04 -5.95)" fill="none" stroke="#ef3f23" stroke-miterlimit="10" stroke-width="4"/><path d="M392.33,261.56c3.54,5.14.6,18.76-.65,18.79" transform="translate(-39.04 -5.95)" fill="none" stroke="#ef3f23" stroke-miterlimit="10" stroke-width="4"/><path d="M432,253.25c13.5-8.52,5.69,5.73-1.87,9.38" transform="translate(-39.04 -5.95)" fill="none" stroke="#ef3f23" stroke-miterlimit="10" stroke-width="4"/><path d="M418.84,255.57c9.69,2.37-1.72,10.54-1.78,14.35" transform="translate(-39.04 -5.95)" fill="none" stroke="#ef3f23" stroke-miterlimit="10" stroke-width="4"/><path d="M398.75,258.78c9.69,2.37-1.72,10.54-1.78,14.35" transform="translate(-39.04 -5.95)" fill="none" stroke="#ef3f23" stroke-miterlimit="10" stroke-width="4"/><path d="M380.22,258.78c9.7,2.37-1.71,10.54-1.77,14.35" transform="translate(-39.04 -5.95)" fill="none" stroke="#ef3f23" stroke-miterlimit="10" stroke-width="4"/><path d="M405,279.33c9.05,3.51,9.77,13.6,4.17,18.38" transform="translate(-39.04 -5.95)" fill="none" stroke="#ef3f23" stroke-miterlimit="10" stroke-width="4"/><polygon points="329.95 52.41 268.25 95.56 329.26 140.15 390.27 95.56 329.95 52.41" fill="#9ccdd6"/><polygon points="329.26 140.15 268.25 95.56 268.25 149.49 329.26 193.27 390.27 149.49 390.27 95.56 329.26 140.15" fill="#adb5b8"/><polygon points="323.41 84.51 326.13 55.64 330.3 74.99 327.35 77.93 326.13 90.26 323.41 84.51" fill="#b3dfd5"/><polygon points="336.75 68.79 327.35 77.93 341.85 79.56 336.75 68.79" fill="#51c3c6"/><path d="M338.64,98.26h19.71l8.12,16.58C360.31,111.41,338.64,98.26,338.64,98.26Z" transform="translate(-39.04 -5.95)" fill="#49a6bd"/><polygon points="323.41 84.51 319.32 92.31 327.43 108.89 331.37 101.63 323.41 84.51" fill="#72c0d4"/><polygon points="337 91.27 327.43 108.89 343.45 99.18 346.15 87.35 337 91.27" fill="#46a5bd"/><polygon points="327.35 77.93 326.12 90.38 331.37 101.63 327.35 77.93" fill="#65bad6"/><polygon points="326.12 47.36 326.13 55.64 330.3 74.99 336.75 68.79 338.9 38.8 326.12 47.36" fill="#a1d0c3"/><polygon points="324.67 23.96 326.12 47.36 338.9 38.8 324.67 23.96" fill="#b7debc"/><polygon points="315.88 46.37 326.12 47.36 324.67 23.96 315.88 46.37" fill="#bee1c3"/><polygon points="316.63 63.09 323.41 84.51 326.13 55.64 326.12 47.36 315.88 46.37 316.63 63.09" fill="#87c4b3"/><polygon points="309.73 79.79 319.32 92.31 323.41 84.51 316.63 63.09 309.73 79.79" fill="#73bea9"/><polygon points="341.85 79.56 327.35 77.93 331.37 101.63 337 91.27 342.75 88.85 341.85 79.56" fill="#6bc7bb"/><polygon points="309.73 79.79 319.32 92.31 308.41 92.31 309.73 79.79" fill="#49bd9d"/><path d="M309.46,57.41a1.25,1.25,0,0,1-2.49,0A1.25,1.25,0,0,1,309.46,57.41Z" transform="translate(-39.04 -5.95)" fill="#fff" stroke="#fff" stroke-miterlimit="10" stroke-width="5"/><path d="M291,24.31a1.24,1.24,0,0,1-2.48,0A1.24,1.24,0,0,1,291,24.31Z" transform="translate(-39.04 -5.95)" fill="#fff" stroke="#fff" stroke-miterlimit="10" stroke-width="5"/><path d="M292.23,97a1.25,1.25,0,0,1-2.49,0A1.25,1.25,0,0,1,292.23,97Z" transform="translate(-39.04 -5.95)" fill="#fff" stroke="#fff" stroke-miterlimit="10" stroke-width="5"/><path d="M279.92,119.17a1.25,1.25,0,0,1-2.49,0A1.25,1.25,0,0,1,279.92,119.17Z" transform="translate(-39.04 -5.95)" fill="#fff" stroke="#fff" stroke-miterlimit="10" stroke-width="5"/><path d="M466.07,111.49a1.25,1.25,0,0,1-2.49,0A1.25,1.25,0,0,1,466.07,111.49Z" transform="translate(-39.04 -5.95)" fill="#fff" stroke="#fff" stroke-miterlimit="10" stroke-width="5"/><path d="M466.07,139.29a1.25,1.25,0,0,1-2.49,0A1.25,1.25,0,0,1,466.07,139.29Z" transform="translate(-39.04 -5.95)" fill="#fff" stroke="#fff" stroke-miterlimit="10" stroke-width="5"/><path d="M274.43,83.79a1.25,1.25,0,0,1-2.49,0A1.25,1.25,0,0,1,274.43,83.79Z" transform="translate(-39.04 -5.95)" fill="#fff" stroke="#fff" stroke-miterlimit="10" stroke-width="5"/><path d="M261.22,109.76a1.25,1.25,0,0,1-2.49,0A1.25,1.25,0,0,1,261.22,109.76Z" transform="translate(-39.04 -5.95)" fill="#fff" stroke="#fff" stroke-miterlimit="10" stroke-width="5"/><path d="M323.85,63.27a1.24,1.24,0,0,1-2.48,0A1.24,1.24,0,0,1,323.85,63.27Z" transform="translate(-39.04 -5.95)" fill="#fff" stroke="#fff" stroke-miterlimit="10" stroke-width="5"/><path d="M262.46,71.4a1.24,1.24,0,0,1-2.48,0A1.24,1.24,0,0,1,262.46,71.4Z" transform="translate(-39.04 -5.95)" fill="#fff" stroke="#fff" stroke-miterlimit="10" stroke-width="5"/><path d="M275.67,54.93a1.25,1.25,0,0,1-2.49,0A1.25,1.25,0,0,1,275.67,54.93Z" transform="translate(-39.04 -5.95)" fill="#fff" stroke="#fff" stroke-miterlimit="10" stroke-width="5"/><path d="M305.78,75.85a1.25,1.25,0,0,1-2.49,0A1.25,1.25,0,0,1,305.78,75.85Z" transform="translate(-39.04 -5.95)" fill="#fff" stroke="#fff" stroke-miterlimit="10" stroke-width="5"/><path d="M315.43,42.31a1.24,1.24,0,0,1-2.48,0A1.24,1.24,0,0,1,315.43,42.31Z" transform="translate(-39.04 -5.95)" fill="#fff" stroke="#fff" stroke-miterlimit="10" stroke-width="5"/><path d="M423,43.56a1.24,1.24,0,0,1-2.48,0A1.24,1.24,0,0,1,423,43.56Z" transform="translate(-39.04 -5.95)" fill="#fff" stroke="#fff" stroke-miterlimit="10" stroke-width="5"/><path d="M466.07,35.13a1.25,1.25,0,0,1-2.49,0A1.25,1.25,0,0,1,466.07,35.13Z" transform="translate(-39.04 -5.95)" fill="#fff" stroke="#fff" stroke-miterlimit="10" stroke-width="5"/><path d="M437.17,19.69a1.24,1.24,0,0,1-2.48,0A1.24,1.24,0,0,1,437.17,19.69Z" transform="translate(-39.04 -5.95)" fill="#fff" stroke="#fff" stroke-miterlimit="10" stroke-width="5"/><path d="M432.25,69.71a1.25,1.25,0,0,1-2.49,0A1.25,1.25,0,0,1,432.25,69.71Z" transform="translate(-39.04 -5.95)" fill="#fff" stroke="#fff" stroke-miterlimit="10" stroke-width="5"/><path d="M453.18,82.55a1.24,1.24,0,0,1-2.48,0A1.24,1.24,0,0,1,453.18,82.55Z" transform="translate(-39.04 -5.95)" fill="#fff" stroke="#fff" stroke-miterlimit="10" stroke-width="5"/><path d="M409.73,64.51a1.24,1.24,0,0,1-2.48,0A1.24,1.24,0,0,1,409.73,64.51Z" transform="translate(-39.04 -5.95)" fill="#fff" stroke="#fff" stroke-miterlimit="10" stroke-width="5"/><path d="M402.92,50.31a1.25,1.25,0,0,1-2.49,0A1.25,1.25,0,0,1,402.92,50.31Z" transform="translate(-39.04 -5.95)" fill="#fff" stroke="#fff" stroke-miterlimit="10" stroke-width="5"/><path d="M474.13,72.21a1.25,1.25,0,0,1-2.49,0A1.25,1.25,0,0,1,474.13,72.21Z" transform="translate(-39.04 -5.95)" fill="#fff" stroke="#fff" stroke-miterlimit="10" stroke-width="5"/><path d="M438.41,58.65a1.24,1.24,0,0,1-2.48,0A1.24,1.24,0,0,1,438.41,58.65Z" transform="translate(-39.04 -5.95)" fill="#fff" stroke="#fff" stroke-miterlimit="10" stroke-width="5"/><path d="M432.25,85a1.25,1.25,0,0,1-2.49,0A1.25,1.25,0,0,1,432.25,85Z" transform="translate(-39.04 -5.95)" fill="#fff" stroke="#fff" stroke-miterlimit="10" stroke-width="5"/><path d="M450.7,114.07a1.25,1.25,0,0,1-2.49,0A1.25,1.25,0,0,1,450.7,114.07Z" transform="translate(-39.04 -5.95)" fill="#fff" stroke="#fff" stroke-miterlimit="10" stroke-width="5"/><path d="M485.21,138.05a1.25,1.25,0,0,1-2.49,0A1.25,1.25,0,0,1,485.21,138.05Z" transform="translate(-39.04 -5.95)" fill="#fff" stroke="#fff" stroke-miterlimit="10" stroke-width="5"/><path d="M454.42,54.93a1.24,1.24,0,0,1-2.48,0A1.24,1.24,0,0,1,454.42,54.93Z" transform="translate(-39.04 -5.95)" fill="#fff" stroke="#fff" stroke-miterlimit="10" stroke-width="5"/><path d="M364.88,14.18a1.24,1.24,0,0,1-2.48,0A1.24,1.24,0,0,1,364.88,14.18Z" transform="translate(-39.04 -5.95)" fill="#fff" stroke="#fff" stroke-miterlimit="10" stroke-width="5"/><path d="M351.63,35.13a1.24,1.24,0,0,1-2.48,0A1.24,1.24,0,0,1,351.63,35.13Z" transform="translate(-39.04 -5.95)" fill="#fff" stroke="#fff" stroke-miterlimit="10" stroke-width="5"/><path d="M344.81,20.93a1.24,1.24,0,0,1-2.48,0A1.24,1.24,0,0,1,344.81,20.93Z" transform="translate(-39.04 -5.95)" fill="#fff" stroke="#fff" stroke-miterlimit="10" stroke-width="5"/><path d="M321.37,9.66a1.25,1.25,0,0,1-2.49,0A1.25,1.25,0,0,1,321.37,9.66Z" transform="translate(-39.04 -5.95)" fill="#fff" stroke="#fff" stroke-miterlimit="10" stroke-width="5"/><path d="M380.31,29.27a1.25,1.25,0,0,1-2.49,0A1.25,1.25,0,0,1,380.31,29.27Z" transform="translate(-39.04 -5.95)" fill="#fff" stroke="#fff" stroke-miterlimit="10" stroke-width="5"/><path d="M396.32,25.55a1.25,1.25,0,0,1-2.49,0A1.25,1.25,0,0,1,396.32,25.55Z" transform="translate(-39.04 -5.95)" fill="#fff" stroke="#fff" stroke-miterlimit="10" stroke-width="5"/><path d="M408.49,15.42a1.24,1.24,0,0,1-2.48,0A1.24,1.24,0,0,1,408.49,15.42Z" transform="translate(-39.04 -5.95)" fill="#fff" stroke="#fff" stroke-miterlimit="10" stroke-width="5"/><polygon points="70.88 261.32 17.62 298.58 70.29 337.08 122.97 298.58 70.88 261.32" fill="#fdf6ab"/><polygon points="70.29 337.08 17.62 298.58 17.62 345.14 70.29 382.94 122.97 345.14 122.97 298.58 70.29 337.08" fill="#e3df95"/><polygon points="85.87 229.11 75.8 236.05 85.87 242.54 96.84 235.83 85.87 229.11" fill="#2c273d"/><polygon points="75.8 293.6 86.32 300.24 96.84 293.78 96.84 235.83 85.87 242.54 75.8 236.05 75.8 293.6" fill="#211e2e"/><polygon points="53.88 261.32 43.95 268.16 53.88 274.56 64.7 267.94 53.88 261.32" fill="#2c273d"/><polygon points="43.95 305.17 54.33 311.72 64.7 305.36 64.7 267.94 53.88 274.56 43.95 268.16 43.95 305.17" fill="#211e2e"/><polygon points="96.98 69.34 35.91 112.06 96.3 156.2 156.69 112.06 96.98 69.34" fill="#26b34b"/><polygon points="96.3 156.2 35.91 112.06 35.91 165.45 96.3 208.79 156.69 165.45 156.69 112.06 96.3 156.2" fill="#88aa6b"/><polygon points="66.13 113.11 76.7 121.84 86.35 115.41 86.35 64.38 76.24 56.11 66.13 62.54 66.13 113.11" fill="#635c26"/><path d="M143.93,78.24c-7.26-7-42.4-10.85-57-.21-7.69,5.61,12.1-20.16,28-20.16S150.78,84.84,143.93,78.24Z" transform="translate(-39.04 -5.95)" fill="#83c671"/><polygon points="104.48 103.66 115.93 113.12 126.38 106.15 126.38 50.89 115.43 41.93 104.48 48.9 104.48 103.66" fill="#635c26"/><path d="M185.49,65.4c-7.86-7.56-45.91-11.74-61.7-.22-8.33,6.08,13.11-21.83,30.32-21.83S192.91,72.56,185.49,65.4Z" transform="translate(-39.04 -5.95)" fill="#60bb46"/><polygon points="88.2 133.07 96.05 139.55 103.21 134.78 103.21 96.92 95.7 90.78 88.2 95.56 88.2 133.07" fill="#635c26"/><path d="M156,108.73c-5.38-5.18-31.46-8-42.27-.15-5.71,4.17,9-15,20.77-15S161.08,113.64,156,108.73Z" transform="translate(-39.04 -5.95)" fill="#8dca78"/></svg>