<svg id="Layer_1" data-name="Layer 1" xmlns="http://www.w3.org/2000/svg" xmlns:xlink="http://www.w3.org/1999/xlink" width="512" height="512" viewBox="0 0 512 512"><defs><clipPath id="clip-path"><polygon points="205.92 208.61 256.18 167.99 256 248.85 205.92 208.61" fill="none"/></clipPath><clipPath id="clip-path-2"><polygon points="306.03 208.4 256.18 167.99 256 248.85 306.03 208.4" fill="none"/></clipPath><clipPath id="clip-path-3"><polygon points="323.17 333.75 306.03 208.4 256 248.85 323.17 333.75" fill="none"/></clipPath><clipPath id="clip-path-4"><polygon points="256 406.26 323.17 333.75 256 248.85 256 406.26" fill="none"/></clipPath><clipPath id="clip-path-5"><polygon points="188.83 333.75 256 248.85 256 406.26 188.83 333.75" fill="none"/></clipPath><clipPath id="clip-path-6"><polygon points="188.83 333.75 205.92 208.61 256 248.85 188.83 333.75" fill="none"/></clipPath></defs><rect width="512" height="512" fill="#262626"/><g id="Layer_2" data-name="Layer 2"><g clip-path="url(#clip-path)"><rect x="202.71" y="163.4" width="60" height="90" fill="#6bcce0"/></g><g clip-path="url(#clip-path-2)"><rect x="251.02" y="163.61" width="60" height="90" fill="#89d5ec"/></g><g clip-path="url(#clip-path-3)"><rect x="254.59" y="205.14" width="70" height="130" fill="#88d2da"/></g><g clip-path="url(#clip-path-4)"><rect x="251.59" y="247.55" width="80" height="160" fill="#73a2d6"/></g><g clip-path="url(#clip-path-5)"><rect x="184.55" y="247.55" width="80" height="160" fill="#7c80be"/></g><g clip-path="url(#clip-path-6)"><rect x="187.41" y="206.18" width="70" height="130" fill="#40bae7"/></g></g><polygon points="336.1 206.71 318.46 219.04 335.9 231.78 353.33 219.04 336.1 206.71" fill="#54ba65"/><polygon points="335.9 231.78 318.46 219.04 318.46 234.45 335.9 246.97 353.33 234.45 353.33 219.04 335.9 231.78" fill="#a37e62"/><polygon points="98.47 405.01 74.94 421.46 98.21 438.47 121.48 421.46 98.47 405.01" fill="#54ba65"/><polygon points="98.21 438.47 74.94 421.46 74.94 442.04 98.21 458.74 121.48 442.04 121.48 421.46 98.21 438.47" fill="#a37e62"/><polygon points="162.48 213.18 142.46 227.19 162.26 241.66 182.06 227.19 162.48 213.18" fill="#54ba65"/><polygon points="162.26 241.66 142.46 227.19 142.46 244.69 162.26 258.89 182.06 244.69 182.06 227.19 162.26 241.66" fill="#a37e62"/><polygon points="290.57 388.89 253.55 414.79 290.16 441.55 326.77 414.79 290.57 388.89" fill="#54ba65"/><polygon points="290.16 441.55 253.55 414.79 253.55 447.16 290.16 473.44 326.77 447.16 326.77 414.79 290.16 441.55" fill="#a37e62"/><polygon points="182.4 367.22 151.32 388.95 182.06 411.42 212.79 388.95 182.4 367.22" fill="#54ba65"/><polygon points="182.06 411.42 151.32 388.95 151.32 416.12 182.06 438.18 212.79 416.12 212.79 388.95 182.06 411.42" fill="#a37e62"/><polygon points="434.86 381.49 405.05 402.34 434.52 423.88 464 402.34 434.86 381.49" fill="#54ba65"/><polygon points="434.52 423.88 405.05 402.34 405.05 428.39 434.52 449.54 464 428.39 464 402.34 434.52 423.88" fill="#a37e62"/><polygon points="66.5 196.9 39.04 216.11 66.2 235.96 93.36 216.11 66.5 196.9" fill="#54ba65"/><polygon points="66.2 235.96 39.04 216.11 39.04 240.12 66.2 259.62 93.36 240.12 93.36 216.11 66.2 235.96" fill="#a37e62"/><polygon points="240.31 85.66 208.93 107.62 239.97 130.3 271 107.62 240.31 85.66" fill="#54ba65"/><polygon points="239.97 130.3 208.93 107.62 208.93 135.05 239.97 157.33 271 135.05 271 107.62 239.97 130.3" fill="#a37e62"/><polygon points="452.04 155.91 421.79 177.06 451.7 198.93 481.62 177.06 452.04 155.91" fill="#54ba65"/><polygon points="451.7 198.93 421.79 177.06 421.79 203.51 451.7 224.98 481.62 203.51 481.62 177.06 451.7 198.93" fill="#a37e62"/><path d="M399.38,326.52l-63.44-46.37v56.08l63.44,45.53,63.44-45.53V280.15Z" fill="#8d5d5c"/><polygon points="376.13 283.1 354.3 299.22 354.3 470.9 380.77 491.22 380.94 313.04 399.07 299.2 376.13 283.1" fill="#f26a2f"/><polygon points="376.13 283.1 376.13 277.84 354.3 293.57 354.3 299.22 376.13 283.1" fill="#664747"/><polygon points="376.13 283.1 399.07 299.2 402.6 296.55 376.13 277.84 376.13 283.1" fill="#664747"/><polygon points="462.82 280.15 400.1 235.28 335.94 280.15 354.3 293.57 376.13 277.84 402.6 296.55 380.94 313.04 399.38 326.52 462.82 280.15" fill="#9c3135"/><path d="M398.25,231.77c-10.7,10.74,7.66,10.25-6.57,15.49" fill="none" stroke="#ef3f23" stroke-miterlimit="10" stroke-width="4"/><path d="M387.32,242.8c-3.55,3.1-9.38,16.1-4.71,13.46s4.25,6.68,3.07,6.27" fill="none" stroke="#ef3f23" stroke-miterlimit="10" stroke-width="4"/><path d="M363.57,254c.47,4.32-5.86,10.31.57,13.89,2.54,1.41-4.3,4.52-5.52,4.81" fill="none" stroke="#ef3f23" stroke-miterlimit="10" stroke-width="4"/><path d="M427.48,270.85c8.8,4.09,8.85,14.21,2.94,18.61" fill="none" stroke="#ef3f23" stroke-miterlimit="10" stroke-width="4"/><path d="M454.94,262.54c3.19,9.17-4,16.25-11.3,15.07" fill="none" stroke="#ef3f23" stroke-miterlimit="10" stroke-width="4"/><path d="M411.14,270.14c3.18,9.16-4.05,16.25-11.31,15.07" fill="none" stroke="#ef3f23" stroke-miterlimit="10" stroke-width="4"/><path d="M406.08,245.53c9.13,4.89.9,16.78-6.2,17.8" fill="none" stroke="#ef3f23" stroke-miterlimit="10" stroke-width="4"/><path d="M392.33,261.56c3.54,5.14.6,18.76-.65,18.79" fill="none" stroke="#ef3f23" stroke-miterlimit="10" stroke-width="4"/><path d="M432,253.25c13.5-8.52,5.69,5.73-1.87,9.38" fill="none" stroke="#ef3f23" stroke-miterlimit="10" stroke-width="4"/><path d="M418.84,255.57c9.69,2.37-1.72,10.54-1.78,14.35" fill="none" stroke="#ef3f23" stroke-miterlimit="10" stroke-width="4"/><path d="M398.75,258.78c9.69,2.37-1.72,10.54-1.78,14.35" fill="none" stroke="#ef3f23" stroke-miterlimit="10" stroke-width="4"/><path d="M380.22,258.78c9.7,2.37-1.71,10.54-1.77,14.35" fill="none" stroke="#ef3f23" stroke-miterlimit="10" stroke-width="4"/><path d="M405,279.33c9.05,3.51,9.77,13.6,4.17,18.38" fill="none" stroke="#ef3f23" stroke-miterlimit="10" stroke-width="4"/><polygon points="368.98 58.36 307.29 101.51 368.3 146.1 429.31 101.51 368.98 58.36" fill="#9ccdd6"/><polygon points="368.3 146.1 307.29 101.51 307.29 155.44 368.3 199.22 429.31 155.44 429.31 101.51 368.3 146.1" fill="#adb5b8"/><polygon points="362.45 90.46 365.16 61.59 369.34 80.94 366.38 83.88 365.17 96.21 362.45 90.46" fill="#b3dfd5"/><polygon points="375.79 74.74 366.38 83.88 380.88 85.51 375.79 74.74" fill="#51c3c6"/><path d="M338.64,98.26h19.71l8.12,16.58C360.31,111.41,338.64,98.26,338.64,98.26Z" fill="#49a6bd"/><polygon points="362.45 90.46 358.35 98.26 366.47 114.84 370.41 107.58 362.45 90.46" fill="#72c0d4"/><polygon points="376.04 97.22 366.47 114.84 382.48 105.13 385.19 93.3 376.04 97.22" fill="#46a5bd"/><polygon points="366.38 83.88 365.16 96.33 370.41 107.58 366.38 83.88" fill="#65bad6"/><polygon points="365.16 53.31 365.16 61.59 369.34 80.94 375.79 74.74 377.94 44.75 365.16 53.31" fill="#a1d0c3"/><polygon points="363.7 29.91 365.16 53.31 377.94 44.75 363.7 29.91" fill="#b7debc"/><polygon points="354.92 52.32 365.16 53.31 363.7 29.91 354.92 52.32" fill="#bee1c3"/><polygon points="355.67 69.04 362.45 90.46 365.16 61.59 365.16 53.31 354.92 52.32 355.67 69.04" fill="#87c4b3"/><polygon points="348.76 85.74 358.35 98.26 362.45 90.46 355.67 69.04 348.76 85.74" fill="#73bea9"/><polygon points="380.88 85.51 366.38 83.88 370.41 107.58 376.04 97.22 381.78 94.8 380.88 85.51" fill="#6bc7bb"/><polygon points="348.76 85.74 358.35 98.26 347.45 98.26 348.76 85.74" fill="#49bd9d"/><path d="M309.46,57.41a1.25,1.25,0,0,1-2.49,0A1.25,1.25,0,0,1,309.46,57.41Z" fill="#fff" stroke="#fff" stroke-miterlimit="10" stroke-width="5"/><path d="M291,24.31a1.24,1.24,0,0,1-2.48,0A1.24,1.24,0,0,1,291,24.31Z" fill="#fff" stroke="#fff" stroke-miterlimit="10" stroke-width="5"/><path d="M292.23,97a1.25,1.25,0,0,1-2.49,0A1.25,1.25,0,0,1,292.23,97Z" fill="#fff" stroke="#fff" stroke-miterlimit="10" stroke-width="5"/><path d="M279.92,119.17a1.25,1.25,0,0,1-2.49,0A1.25,1.25,0,0,1,279.92,119.17Z" fill="#fff" stroke="#fff" stroke-miterlimit="10" stroke-width="5"/><path d="M466.07,111.49a1.25,1.25,0,0,1-2.49,0A1.25,1.25,0,0,1,466.07,111.49Z" fill="#fff" stroke="#fff" stroke-miterlimit="10" stroke-width="5"/><path d="M466.07,139.29a1.25,1.25,0,0,1-2.49,0A1.25,1.25,0,0,1,466.07,139.29Z" fill="#fff" stroke="#fff" stroke-miterlimit="10" stroke-width="5"/><path d="M274.43,83.79a1.25,1.25,0,0,1-2.49,0A1.25,1.25,0,0,1,274.43,83.79Z" fill="#fff" stroke="#fff" stroke-miterlimit="10" stroke-width="5"/><path d="M261.22,109.76a1.25,1.25,0,0,1-2.49,0A1.25,1.25,0,0,1,261.22,109.76Z" fill="#fff" stroke="#fff" stroke-miterlimit="10" stroke-width="5"/><path d="M323.85,63.27a1.24,1.24,0,0,1-2.48,0A1.24,1.24,0,0,1,323.85,63.27Z" fill="#fff" stroke="#fff" stroke-miterlimit="10" stroke-width="5"/><path d="M262.46,71.4a1.24,1.24,0,0,1-2.48,0A1.24,1.24,0,0,1,262.46,71.4Z" fill="#fff" stroke="#fff" stroke-miterlimit="10" stroke-width="5"/><path d="M275.67,54.93a1.25,1.25,0,0,1-2.49,0A1.25,1.25,0,0,1,275.67,54.93Z" fill="#fff" stroke="#fff" stroke-miterlimit="10" stroke-width="5"/><path d="M305.78,75.85a1.25,1.25,0,0,1-2.49,0A1.25,1.25,0,0,1,305.78,75.85Z" fill="#fff" stroke="#fff" stroke-miterlimit="10" stroke-width="5"/><path d="M315.43,42.31a1.24,1.24,0,0,1-2.48,0A1.24,1.24,0,0,1,315.43,42.31Z" fill="#fff" stroke="#fff" stroke-miterlimit="10" stroke-width="5"/><path d="M423,43.56a1.24,1.24,0,0,1-2.48,0A1.24,1.24,0,0,1,423,43.56Z" fill="#fff" stroke="#fff" stroke-miterlimit="10" stroke-width="5"/><path d="M466.07,35.13a1.25,1.25,0,0,1-2.49,0A1.25,1.25,0,0,1,466.07,35.13Z" fill="#fff" stroke="#fff" stroke-miterlimit="10" stroke-width="5"/><path d="M437.17,19.69a1.24,1.24,0,0,1-2.48,0A1.24,1.24,0,0,1,437.17,19.69Z" fill="#fff" stroke="#fff" stroke-miterlimit="10" stroke-width="5"/><path d="M432.25,69.71a1.25,1.25,0,0,1-2.49,0A1.25,1.25,0,0,1,432.25,69.71Z" fill="#fff" stroke="#fff" stroke-miterlimit="10" stroke-width="5"/><path d="M453.18,82.55a1.24,1.24,0,0,1-2.48,0A1.24,1.24,0,0,1,453.18,82.55Z" fill="#fff" stroke="#fff" stroke-miterlimit="10" stroke-width="5"/><path d="M409.73,64.51a1.24,1.24,0,0,1-2.48,0A1.24,1.24,0,0,1,409.73,64.51Z" fill="#fff" stroke="#fff" stroke-miterlimit="10" stroke-width="5"/><path d="M402.92,50.31a1.25,1.25,0,0,1-2.49,0A1.25,1.25,0,0,1,402.92,50.31Z" fill="#fff" stroke="#fff" stroke-miterlimit="10" stroke-width="5"/><path d="M474.13,72.21a1.25,1.25,0,0,1-2.49,0A1.25,1.25,0,0,1,474.13,72.21Z" fill="#fff" stroke="#fff" stroke-miterlimit="10" stroke-width="5"/><path d="M438.41,58.65a1.24,1.24,0,0,1-2.48,0A1.24,1.24,0,0,1,438.41,58.65Z" fill="#fff" stroke="#fff" stroke-miterlimit="10" stroke-width="5"/><path d="M432.25,85a1.25,1.25,0,0,1-2.49,0A1.25,1.25,0,0,1,432.25,85Z" fill="#fff" stroke="#fff" stroke-miterlimit="10" stroke-width="5"/><path d="M450.7,114.07a1.25,1.25,0,0,1-2.49,0A1.25,1.25,0,0,1,450.7,114.07Z" fill="#fff" stroke="#fff" stroke-miterlimit="10" stroke-width="5"/><path d="M485.21,138.05a1.25,1.25,0,0,1-2.49,0A1.25,1.25,0,0,1,485.21,138.05Z" fill="#fff" stroke="#fff" stroke-miterlimit="10" stroke-width="5"/><path d="M454.42,54.93a1.24,1.24,0,0,1-2.48,0A1.24,1.24,0,0,1,454.42,54.93Z" fill="#fff" stroke="#fff" stroke-miterlimit="10" stroke-width="5"/><path d="M364.88,14.18a1.24,1.24,0,0,1-2.48,0A1.24,1.24,0,0,1,364.88,14.18Z" fill="#fff" stroke="#fff" stroke-miterlimit="10" stroke-width="5"/><path d="M351.63,35.13a1.24,1.24,0,0,1-2.48,0A1.24,1.24,0,0,1,351.63,35.13Z" fill="#fff" stroke="#fff" stroke-miterlimit="10" stroke-width="5"/><path d="M344.81,20.93a1.24,1.24,0,0,1-2.48,0A1.24,1.24,0,0,1,344.81,20.93Z" fill="#fff" stroke="#fff" stroke-miterlimit="10" stroke-width="5"/><path d="M321.37,9.66a1.25,1.25,0,0,1-2.49,0A1.25,1.25,0,0,1,321.37,9.66Z" fill="#fff" stroke="#fff" stroke-miterlimit="10" stroke-width="5"/><path d="M380.31,29.27a1.25,1.25,0,0,1-2.49,0A1.25,1.25,0,0,1,380.31,29.27Z" fill="#fff" stroke="#fff" stroke-miterlimit="10" stroke-width="5"/><path d="M396.32,25.55a1.25,1.25,0,0,1-2.49,0A1.25,1.25,0,0,1,396.32,25.55Z" fill="#fff" stroke="#fff" stroke-miterlimit="10" stroke-width="5"/><path d="M408.49,15.42a1.24,1.24,0,0,1-2.48,0A1.24,1.24,0,0,1,408.49,15.42Z" fill="#fff" stroke="#fff" stroke-miterlimit="10" stroke-width="5"/><polygon points="109.92 267.27 56.65 304.53 109.33 343.02 162 304.53 109.92 267.27" fill="#fdf6ab"/><polygon points="109.33 343.02 56.65 304.53 56.65 351.09 109.33 388.89 162 351.09 162 304.53 109.33 343.02" fill="#e3df95"/><polygon points="124.91 235.06 114.83 242 124.91 248.5 135.88 241.78 124.91 235.06" fill="#2c273d"/><polygon points="114.83 299.54 125.36 306.19 135.88 299.73 135.88 241.78 124.91 248.5 114.83 242 114.83 299.54" fill="#211e2e"/><polygon points="92.92 267.27 82.99 274.11 92.92 280.51 103.73 273.89 92.92 267.27" fill="#2c273d"/><polygon points="82.99 311.12 93.36 317.67 103.73 311.31 103.73 273.89 92.92 280.51 82.99 274.11 82.99 311.12" fill="#211e2e"/><polygon points="136.02 75.29 74.94 118.01 135.34 162.15 195.73 118.01 136.02 75.29" fill="#26b34b"/><polygon points="135.34 162.15 74.94 118.01 74.94 171.4 135.34 214.74 195.73 171.4 195.73 118.01 135.34 162.15" fill="#88aa6b"/><polygon points="105.16 119.06 115.74 127.79 125.39 121.36 125.39 70.33 115.28 62.06 105.16 68.49 105.16 119.06" fill="#635c26"/><path d="M143.93,78.24c-7.26-7-42.4-10.85-57-.21-7.69,5.61,12.1-20.16,28-20.16S150.78,84.84,143.93,78.24Z" fill="#83c671"/><polygon points="143.51 109.61 154.96 119.07 165.42 112.1 165.42 56.84 154.47 47.88 143.51 54.85 143.51 109.61" fill="#635c26"/><path d="M185.49,65.4c-7.86-7.56-45.91-11.74-61.7-.22-8.33,6.08,13.11-21.83,30.32-21.83S192.91,72.56,185.49,65.4Z" fill="#60bb46"/><polygon points="127.24 139.02 135.08 145.5 142.25 140.73 142.25 102.87 134.74 96.73 127.24 101.5 127.24 139.02" fill="#635c26"/><path d="M156,108.73c-5.38-5.18-31.46-8-42.27-.15-5.71,4.17,9-15,20.77-15S161.08,113.64,156,108.73Z" fill="#8dca78"/></svg>